<svg preserveAspectRatio="xMidYMid meet" viewBox="99.84 126.72 433.28000000000003 403.2" xmlns="http://www.w3.org/2000/svg" version="1.0" style="max-height: 500px" width="433.28000000000003" height="403.2">

<g stroke="none" fill="#000000" transform="translate(0.000000,640.000000) scale(0.100000,-0.100000)">
<path d="M3267 4358 c-80 -139 -177 -307 -215 -373 l-70 -120 123 -3 124 -3&#10;40 -69 40 -70 -207 -2 -206 -3 -49 -85 c-204 -354 -267 -463 -267 -467 0 -2&#10;181 -3 403 -3 221 0 458 0 527 0 l125 0 35 -63 c19 -34 37 -65 38 -69 2 -5&#10;-269 -8 -602 -8 -333 0 -606 3 -606 8 0 4 16 33 35 65 19 32 35 60 35 63 0 2&#10;-207 4 -459 4 l-459 0 -36 -64 c-20 -35 -36 -67 -36 -70 0 -3 205 -6 455 -6&#10;250 0 455 -2 455 -4 0 -3 -70 -125 -155 -272 -85 -148 -155 -272 -155 -276 0&#10;-5 314 -8 698 -8 383 0 801 0 929 0 l232 0 36 -63 c19 -35 35 -67 35 -70 0 -4&#10;-455 -8 -1011 -9 l-1011 -3 -75 -130 c-41 -71 -108 -187 -149 -257 -41 -70&#10;-74 -132 -74 -138 0 -7 502 -10 1625 -10 1005 0 1625 4 1625 9 0 6 -31 63 -69&#10;128 -37 65 -247 429 -466 808 -219 380 -462 800 -540 935 -78 135 -231 400&#10;-340 590 -109 190 -201 349 -205 353 -4 4 -73 -106 -153 -245z"/>
<path d="M2009 3798 c-19 -35 -35 -66 -37 -70 -2 -5 206 -8 462 -8 l465 0 36&#10;63 c19 35 35 67 35 70 0 4 -209 7 -464 7 l-463 0 -34 -62z"/>
<path d="M1247 2438 c-33 -54 -57 -100 -57 -109 0 -5 175 -9 449 -9 l449 0 41&#10;70 40 70 -454 0 -455 0 -13 -22z"/>
</g>
</svg>